<svg width="20" height="21" viewBox="0 0 20 21" fill="none" xmlns="http://www.w3.org/2000/svg">
<path d="M11.6923 4.73724C12.829 3.60061 14.6718 3.60061 15.8084 4.73724C16.9451 5.87388 16.9451 7.71672 15.8084 8.85336L13.4601 11.2017C12.2397 12.4221 10.2611 12.4221 9.04067 11.2017L8.56732 10.7284C8.32324 10.4843 7.92751 10.4843 7.68344 10.7284C7.43936 10.9724 7.43936 11.3682 7.68344 11.6122L8.15679 12.0856C9.86533 13.7941 12.6354 13.7941 14.344 12.0856L16.6923 9.73724C18.3171 8.11245 18.3171 5.47815 16.6923 3.85336C15.0675 2.22857 12.4332 2.22857 10.8084 3.85336L8.93344 5.72836C8.68936 5.97243 8.68936 6.36816 8.93344 6.61224C9.17751 6.85632 9.57324 6.85632 9.81732 6.61224L11.6923 4.73724Z" fill="#717171"/>
<path d="M6.54067 9.88888C7.76106 8.66849 9.7397 8.66849 10.9601 9.88888L11.4334 10.3622C11.6775 10.6063 12.0732 10.6063 12.3173 10.3622C12.5614 10.1181 12.5614 9.72242 12.3173 9.47834L11.844 9.00499C10.1354 7.29645 7.36533 7.29645 5.65679 9.00499L3.30843 11.3533C1.68364 12.9781 1.68365 15.6124 3.30844 17.2372C4.93323 18.862 7.56753 18.862 9.19232 17.2372L11.0673 15.3622C11.3114 15.1182 11.3114 14.7224 11.0673 14.4783C10.8232 14.2343 10.4275 14.2343 10.1834 14.4783L8.30844 16.3533C7.1718 17.49 5.32896 17.49 4.19232 16.3533C3.05569 15.2167 3.05568 13.3739 4.19232 12.2372L6.54067 9.88888Z" fill="#717171"/>
</svg>
